<svg id="add-post" xmlns="http://www.w3.org/2000/svg" width="20" height="20" viewBox="0 0 20 20">
  <path id="Path_23800" data-name="Path 23800" d="M15.333,2V5.333A2.667,2.667,0,0,0,18,8h3.992q.008.1.008.2v8.464A5.333,5.333,0,0,1,16.666,22H7.333A5.333,5.333,0,0,1,2,16.666V7.333A5.333,5.333,0,0,1,7.333,2Zm.333,10a.667.667,0,0,1-.667.667H12.666V15a.667.667,0,0,1-1.333,0V12.666H9a.667.667,0,0,1,0-1.333h2.333V9a.667.667,0,0,1,1.333,0v2.333H15A.667.667,0,0,1,15.666,12Z" transform="translate(-2 -2)" fill="#388cff" fill-rule="evenodd"/>
  <path id="Path_23801" data-name="Path 23801" d="M46,2.742V5.828a1.333,1.333,0,0,0,1.333,1.333h3.513a2.665,2.665,0,0,0-.361-.414L46.7,3.212A2.666,2.666,0,0,0,46,2.742Z" transform="translate(-31.334 -2.495)" fill="#388cff"/>
</svg>
